<svg width="152" height="44" viewBox="0 0 152 44" fill="none" xmlns="http://www.w3.org/2000/svg">
<path d="M1.776 12.632C1.552 12.28 1.344 11.8 1.152 11.192C0.96 10.584 0.864 9.944 0.864 9.272C0.864 8.024 1.136 7.128 1.68 6.584C2.256 6.04 2.992 5.768 3.888 5.768H24.816C25.04 6.12 25.248 6.6 25.44 7.208C25.632 7.816 25.728 8.456 25.728 9.128C25.728 10.376 25.44 11.272 24.864 11.816C24.32 12.36 23.6 12.632 22.704 12.632H17.376V34.808C17.024 34.904 16.464 35 15.696 35.096C14.96 35.192 14.224 35.24 13.488 35.24C12.752 35.24 12.096 35.176 11.52 35.048C10.976 34.952 10.512 34.76 10.128 34.472C9.744 34.184 9.456 33.784 9.264 33.272C9.072 32.76 8.976 32.088 8.976 31.256V12.632H1.776ZM35.406 34.952C35.086 35.048 34.574 35.144 33.87 35.24C33.198 35.336 32.494 35.384 31.758 35.384C31.054 35.384 30.414 35.336 29.838 35.24C29.294 35.144 28.83 34.952 28.446 34.664C28.062 34.376 27.758 33.992 27.534 33.512C27.342 33 27.246 32.344 27.246 31.544V17.144C27.246 16.408 27.374 15.784 27.63 15.272C27.918 14.728 28.318 14.248 28.83 13.832C29.342 13.416 29.966 13.048 30.702 12.728C31.47 12.376 32.286 12.072 33.15 11.816C34.014 11.56 34.91 11.368 35.838 11.24C36.766 11.08 37.694 11 38.622 11C40.158 11 41.374 11.304 42.27 11.912C43.166 12.488 43.614 13.448 43.614 14.792C43.614 15.24 43.55 15.688 43.422 16.136C43.294 16.552 43.134 16.936 42.942 17.288C42.27 17.288 41.582 17.32 40.878 17.384C40.174 17.448 39.486 17.544 38.814 17.672C38.142 17.8 37.502 17.944 36.894 18.104C36.318 18.232 35.822 18.392 35.406 18.584V34.952ZM46.7884 5.192C46.7884 3.976 47.1884 2.952 47.9884 2.12C48.8204 1.288 49.9084 0.871999 51.2524 0.871999C52.5964 0.871999 53.6684 1.288 54.4684 2.12C55.3004 2.952 55.7164 3.976 55.7164 5.192C55.7164 6.408 55.3004 7.432 54.4684 8.264C53.6684 9.096 52.5964 9.512 51.2524 9.512C49.9084 9.512 48.8204 9.096 47.9884 8.264C47.1884 7.432 46.7884 6.408 46.7884 5.192ZM55.3324 34.952C54.9804 35.016 54.4524 35.096 53.7484 35.192C53.0764 35.32 52.3884 35.384 51.6844 35.384C50.9804 35.384 50.3404 35.336 49.7644 35.24C49.2204 35.144 48.7564 34.952 48.3724 34.664C47.9884 34.376 47.6844 33.992 47.4604 33.512C47.2684 33 47.1724 32.344 47.1724 31.544V12.008C47.5244 11.944 48.0364 11.864 48.7084 11.768C49.4124 11.64 50.1164 11.576 50.8204 11.576C51.5244 11.576 52.1484 11.624 52.6924 11.72C53.2684 11.816 53.7484 12.008 54.1324 12.296C54.5164 12.584 54.8044 12.984 54.9964 13.496C55.2204 13.976 55.3324 14.616 55.3324 15.416V34.952ZM71.2313 10.952C73.1513 10.952 74.9273 11.208 76.5593 11.72C78.2233 12.2 79.6473 12.952 80.8313 13.976C82.0153 15 82.9433 16.296 83.6153 17.864C84.2873 19.4 84.6233 21.24 84.6233 23.384C84.6233 25.432 84.3353 27.224 83.7593 28.76C83.1833 30.296 82.3673 31.592 81.3113 32.648C80.2553 33.672 78.9753 34.44 77.4713 34.952C75.9993 35.464 74.3513 35.72 72.5273 35.72C71.1513 35.72 69.8713 35.512 68.6873 35.096V43.064C68.3673 43.16 67.8553 43.256 67.1513 43.352C66.4473 43.48 65.7273 43.544 64.9913 43.544C64.2873 43.544 63.6473 43.496 63.0713 43.4C62.5273 43.304 62.0633 43.112 61.6793 42.824C61.2953 42.536 61.0073 42.136 60.8153 41.624C60.6233 41.144 60.5273 40.504 60.5273 39.704V16.664C60.5273 15.8 60.7033 15.096 61.0553 14.552C61.4393 14.008 61.9513 13.512 62.5913 13.064C63.5833 12.424 64.8153 11.912 66.2873 11.528C67.7593 11.144 69.4073 10.952 71.2313 10.952ZM71.3273 29.288C74.6233 29.288 76.2713 27.32 76.2713 23.384C76.2713 21.336 75.8553 19.816 75.0233 18.824C74.2233 17.832 73.0553 17.336 71.5193 17.336C70.9113 17.336 70.3673 17.416 69.8873 17.576C69.4073 17.704 68.9913 17.864 68.6393 18.056V28.616C69.0233 28.808 69.4393 28.968 69.8873 29.096C70.3353 29.224 70.8153 29.288 71.3273 29.288ZM96.9094 34.952C96.5574 35.016 96.0294 35.096 95.3254 35.192C94.6534 35.32 93.9654 35.384 93.2614 35.384C92.5574 35.384 91.9174 35.336 91.3414 35.24C90.7974 35.144 90.3334 34.952 89.9494 34.664C89.5654 34.376 89.2614 33.992 89.0374 33.512C88.8454 33 88.7494 32.344 88.7494 31.544V3.704C89.1014 3.64 89.6134 3.56 90.2854 3.464C90.9894 3.336 91.6934 3.272 92.3974 3.272C93.1014 3.272 93.7254 3.32 94.2694 3.416C94.8454 3.512 95.3254 3.704 95.7094 3.992C96.0934 4.28 96.3814 4.68 96.5734 5.192C96.7974 5.672 96.9094 6.312 96.9094 7.112V34.952ZM112.043 29.816C112.587 29.816 113.179 29.768 113.819 29.672C114.491 29.544 114.987 29.384 115.307 29.192V25.352L111.851 25.64C110.955 25.704 110.219 25.896 109.643 26.216C109.067 26.536 108.779 27.016 108.779 27.656C108.779 28.296 109.019 28.824 109.499 29.24C110.011 29.624 110.859 29.816 112.043 29.816ZM111.659 10.952C113.387 10.952 114.955 11.128 116.363 11.48C117.803 11.832 119.019 12.376 120.011 13.112C121.035 13.816 121.819 14.728 122.363 15.848C122.907 16.936 123.179 18.232 123.179 19.736V30.488C123.179 31.32 122.939 32.008 122.459 32.552C122.011 33.064 121.467 33.512 120.827 33.896C118.747 35.144 115.819 35.768 112.043 35.768C110.347 35.768 108.811 35.608 107.435 35.288C106.091 34.968 104.923 34.488 103.931 33.848C102.971 33.208 102.219 32.392 101.675 31.4C101.163 30.408 100.907 29.256 100.907 27.944C100.907 25.736 101.563 24.04 102.875 22.856C104.187 21.672 106.219 20.936 108.971 20.648L115.259 19.976V19.64C115.259 18.712 114.843 18.056 114.011 17.672C113.211 17.256 112.043 17.048 110.507 17.048C109.291 17.048 108.107 17.176 106.955 17.432C105.803 17.688 104.763 18.008 103.835 18.392C103.419 18.104 103.067 17.672 102.779 17.096C102.491 16.488 102.347 15.864 102.347 15.224C102.347 14.392 102.539 13.736 102.923 13.256C103.339 12.744 103.963 12.312 104.795 11.96C105.723 11.608 106.811 11.352 108.059 11.192C109.339 11.032 110.539 10.952 111.659 10.952ZM142.952 20.216C142.952 19.224 142.664 18.504 142.088 18.056C141.544 17.576 140.792 17.336 139.832 17.336C139.192 17.336 138.552 17.416 137.912 17.576C137.304 17.736 136.776 17.976 136.328 18.296V34.952C136.008 35.048 135.496 35.144 134.792 35.24C134.12 35.336 133.416 35.384 132.68 35.384C131.976 35.384 131.336 35.336 130.76 35.24C130.216 35.144 129.752 34.952 129.368 34.664C128.984 34.376 128.68 33.992 128.456 33.512C128.264 33 128.168 32.344 128.168 31.544V17.144C128.168 16.28 128.344 15.576 128.696 15.032C129.08 14.488 129.592 13.992 130.232 13.544C131.32 12.776 132.68 12.152 134.312 11.672C135.976 11.192 137.816 10.952 139.832 10.952C143.448 10.952 146.232 11.752 148.184 13.352C150.136 14.92 151.112 17.112 151.112 19.928V34.952C150.792 35.048 150.28 35.144 149.576 35.24C148.904 35.336 148.2 35.384 147.464 35.384C146.76 35.384 146.12 35.336 145.544 35.24C145 35.144 144.536 34.952 144.152 34.664C143.768 34.376 143.464 33.992 143.24 33.512C143.048 33 142.952 32.344 142.952 31.544V20.216Z" fill="white"/>
</svg>
